<svg id="visual" viewBox="0 0 900 600" width="900" height="600" xmlns="http://www.w3.org/2000/svg" xmlns:xlink="http://www.w3.org/1999/xlink" version="1.1"><rect x="0" y="0" width="900" height="600" fill="#001220"></rect><path d="M0 387L21.5 390C43 393 86 399 128.8 403.5C171.7 408 214.3 411 257.2 408.7C300 406.3 343 398.7 385.8 396.3C428.7 394 471.3 397 514.2 396C557 395 600 390 642.8 390.5C685.7 391 728.3 397 771.2 395.2C814 393.3 857 383.7 878.5 378.8L900 374L900 601L878.5 601C857 601 814 601 771.2 601C728.3 601 685.7 601 642.8 601C600 601 557 601 514.2 601C471.3 601 428.7 601 385.8 601C343 601 300 601 257.2 601C214.3 601 171.7 601 128.8 601C86 601 43 601 21.5 601L0 601Z" fill="#fa7268"></path><path d="M0 442L21.5 438.3C43 434.7 86 427.3 128.8 433.5C171.7 439.7 214.3 459.3 257.2 461.7C300 464 343 449 385.8 445.8C428.7 442.7 471.3 451.3 514.2 446.2C557 441 600 422 642.8 423.2C685.7 424.3 728.3 445.7 771.2 444.2C814 442.7 857 418.3 878.5 406.2L900 394L900 601L878.5 601C857 601 814 601 771.2 601C728.3 601 685.7 601 642.8 601C600 601 557 601 514.2 601C471.3 601 428.7 601 385.8 601C343 601 300 601 257.2 601C214.3 601 171.7 601 128.8 601C86 601 43 601 21.5 601L0 601Z" fill="#ef5f67"></path><path d="M0 490L21.5 485C43 480 86 470 128.8 463.3C171.7 456.7 214.3 453.3 257.2 458.5C300 463.7 343 477.3 385.8 475.3C428.7 473.3 471.3 455.7 514.2 450C557 444.3 600 450.7 642.8 456.8C685.7 463 728.3 469 771.2 477.2C814 485.3 857 495.7 878.5 500.8L900 506L900 601L878.5 601C857 601 814 601 771.2 601C728.3 601 685.7 601 642.8 601C600 601 557 601 514.2 601C471.3 601 428.7 601 385.8 601C343 601 300 601 257.2 601C214.3 601 171.7 601 128.8 601C86 601 43 601 21.5 601L0 601Z" fill="#e34c67"></path><path d="M0 502L21.5 508.3C43 514.7 86 527.3 128.8 527C171.7 526.7 214.3 513.3 257.2 504.5C300 495.7 343 491.3 385.8 497.8C428.7 504.3 471.3 521.7 514.2 523.3C557 525 600 511 642.8 510.5C685.7 510 728.3 523 771.2 523.7C814 524.3 857 512.7 878.5 506.8L900 501L900 601L878.5 601C857 601 814 601 771.2 601C728.3 601 685.7 601 642.8 601C600 601 557 601 514.2 601C471.3 601 428.7 601 385.8 601C343 601 300 601 257.2 601C214.3 601 171.7 601 128.8 601C86 601 43 601 21.5 601L0 601Z" fill="#d53867"></path><path d="M0 563L21.5 561.5C43 560 86 557 128.8 554.7C171.7 552.3 214.3 550.7 257.2 546.3C300 542 343 535 385.8 538.3C428.7 541.7 471.3 555.3 514.2 556.3C557 557.3 600 545.7 642.8 545.2C685.7 544.7 728.3 555.3 771.2 554.2C814 553 857 540 878.5 533.5L900 527L900 601L878.5 601C857 601 814 601 771.2 601C728.3 601 685.7 601 642.8 601C600 601 557 601 514.2 601C471.3 601 428.7 601 385.8 601C343 601 300 601 257.2 601C214.3 601 171.7 601 128.8 601C86 601 43 601 21.5 601L0 601Z" fill="#c62368"></path></svg>